<?xml version="1.0" encoding="UTF-8"?>
<svg id="Layer_2" xmlns="http://www.w3.org/2000/svg" viewBox="0 0 30.59 29.44">
  <defs>
    <style>
      .cls-1 {
        fill: #231f20;
      }
    </style>
  </defs>
  <g id="_x33_.5_x__x_2_in__x2013__1">
    <g id="Text">
      <g>
        <path class="cls-1" d="M26.27.03l-1.62,3.04-3.95,7.42-1.64-3.09h-8.29v19.41h4.89v-8.94c0-1.94-.03-3.74-.09-5.38-.02-.43-.05-.86-.07-1.29l4.4,7.63h1.55l4.44-7.68c-.03.47-.06.94-.08,1.4-.07,1.65-.11,3.43-.11,5.33v11.56h4.89V.03h-4.32Z"/>
        <polygon class="cls-1" points="24.21 0 0 0 0 6.25 4.07 6.25 4.07 26.78 9.15 26.78 9.15 6.25 21.25 6.25 24.21 0"/>
      </g>
    </g>
  </g>
</svg>