<?xml version="1.0" encoding="UTF-8"?>
<svg id="Layer_2" xmlns="http://www.w3.org/2000/svg" viewBox="0 0 771.36 285.81">
  <defs>
    <style>
      .cls-1 {
        fill: #fff;
      }

      .cls-2 {
        fill: #82897c;
      }

      .cls-3 {
        fill: #b6b7b6;
      }

      .cls-4 {
        fill: #9da398;
      }
    </style>
  </defs>
  <g id="Layer_3">
    <g>
      <g>
        <path class="cls-1" d="M290.66,143.27c-3.21,187.95-282.79,187.92-285.97,0,3.21-187.95,282.79-187.92,285.97,0Z"/>
        <path class="cls-2" d="M290.66,143.27c-.91,189.63-289.67,190.49-290.66,0,3.25-191.2,287.4-190.83,290.66,0h0ZM290.66,143.27C292.68-8.52,74.96-50.64,19.76,90.29c-73.8,209.58,260.66,274.65,270.91,52.98h0Z"/>
      </g>
      <g>
        <path class="cls-4" d="M278.62,49.57h-63.93c-5.31,15.57-43.41,115.39-46.26,129.35-1.92-13.11-41.03-114.63-45.87-129.35H54.97v185.31s0,2.08,0,2.08h43.52c-.22-24.54.63-109.69-.76-133.14.97,4.03,1.77,6.85,2.41,8.52.67,1.78,46.23,122.89,46.88,124.62h38.6c.57-1.56,45.49-124.35,46.07-125.93.68-1.87,1.4-4.19,2.15-6.95-1.01,15.27-.33,115.66-.52,132.88h47.32V51.65s0-2.08,0-2.08h-2.03ZM175.16,163.4c-.28.81-.55,1.64-.82,2.48.27-.84.55-1.67.82-2.48ZM56.99,234.88V51.66h64.15l14.95,40.87-14.95-40.87H56.99v183.23h0ZM96.18,87.3c.17.84.34,1.65.51,2.45-.17-.8-.34-1.61-.51-2.45ZM97.69,94.48c.13.58.25,1.15.37,1.7-.12-.55-.24-1.12-.37-1.7ZM96.98,91.13c.13.63.27,1.25.39,1.86-.13-.61-.26-1.23-.39-1.86ZM98.36,97.54c.12.53.23,1.04.35,1.55-.11-.5-.23-1.02-.35-1.55ZM98.79,99.44c.11.49.22.97.33,1.44-.11-.47-.22-.95-.33-1.44ZM99.19,101.21c.17.74.34,1.45.5,2.12-.16-.67-.33-1.38-.5-2.12ZM230.01,109.69c.07-.2.14-.41.21-.62-.07.21-.14.42-.21.62ZM230.74,107.47c.06-.18.11-.37.17-.55-.06.19-.11.37-.17.55ZM235.37,120.78s0-.07,0-.1c0,.03,0,.07,0,.1ZM235.97,101.84c.17-3.42.38-6.92.62-10.51-.24,3.58-.45,7.08-.62,10.51ZM278.62,51.66h-62.53l-39.74,108.35,39.74-108.35h62.53Z"/>
        <g>
          <path class="cls-2" d="M278.62,49.89c-15.97.04-47.97.08-63.93.23,0,0,.51-.35.51-.35-14.97,44.57-35.18,93.2-46.86,138.63-11.42-45.84-33.44-92.88-48.36-137.87,0,0,2.58,1.8,2.58,1.8-16.81-.03-50.77-.33-67.58-.48,0,0,2.27-2.27,2.27-2.27-.36,54.2-1.62,133.92-1.32,187.4,0,0-.95-.95-.95-.95,10.89-.05,32.65-.03,43.52-.1,0,0-1.05,1.05-1.05,1.05-.48-42.33.21-90.98-1.78-133.05,0,0,4.1-.59,4.1-.59,2.27,9.61,8.58,23.59,12.01,33.1,8.12,21.02,29.73,77.72,38.03,99.49,0,0-2.77-1.91-2.77-1.91l38.6-.15s-2.92,2.04-2.92,2.04c17.17-50.24,42.9-110.87,55.96-161.84-3.35,52.99-1.72,109.92-2.61,162.91,0,0-2.72-2.72-2.72-2.72,11.76.06,35.56.42,47.32.57,0,0-2.15,2.15-2.15,2.15.53-55.28,2.07-132.91,1.84-187.4,0,0,.32.32.32.32,0,0-2.03,0-2.03,0h0ZM278.62,49.26c.21,0,2.2,0,2.34,0,.1,55.22.99,133.87,1.87,189.84-12.87.19-36.62.49-49.5.6,0,0-2.69.03-2.69.03-.14-43.82-1.24-91.92-.14-135.79,0,0,6.58,1.03,6.58,1.03-12.67,37.71-34.67,94.69-48.54,133.07,0,0-.76,2.05-.76,2.05-1.89,0-40.88-.16-42.82-.17-11.64-31.69-32.49-87.22-43.79-118.45-1.89-5-4.47-11.98-5.46-17.15,0,0,4.1-.59,4.1-.59,1.2,42.29-.43,90.82-.26,133.24,0,0,0,1.06,0,1.06-11.78-.09-33.72-.06-45.52-.1-.02-54.59-.63-135.33-1.34-190.6,18-.17,51.88-.43,69.88-.5,0,0,1.91-.01,1.91-.01,14.78,42.6,34.41,88.28,46.13,131.63,0,0-4.31-.09-4.31-.09,8.98-30.41,24.92-66.83,35.75-96.84.19-.5,12.1-32.02,12.28-32.49,16.08.16,48.21.2,64.3.23Z"/>
          <path class="cls-2" d="M175.46,163.5c-.17.5,2.98,1.73,1.77,1.96-.89.05-2.73-.14-1.26.95-.92-.38-3.9-.91-4.24-2.07-1-1.87,2.47-.46,3.13-1.04,0,0,.59.2.59.2ZM175.46,163.5c.36.89,2.21,1.19,2.47,2.19-.81,1.6-4.03-.05-5.22-.34,1.82-.01.26-.94-.44-1.53-.66-.97,2.3,0,2.6-.52,0,0,.59.2.59.2Z"/>
          <path class="cls-2" d="M56.68,234.88c-2.63-60.8-3.31-122.41-1.38-183.23,0,0,.05-1.73.05-1.73,15.53.43,34.3.78,49.76.79,0,0,16.04-.05,16.04-.05,0,0,.69,0,.69,0,3.64,9.74,8.13,21.45,11.91,31.15,0,0,3.97,10.13,3.97,10.13,0,0-3.22,1.18-3.22,1.18-4.58-11.45-11.4-29.18-15.82-40.55,0,0,2.47,1.73,2.47,1.73-15.99.21-48.17.5-64.15.63,0,0,3.26-3.26,3.26-3.26-.29,60.07.66,124.41-3.58,183.23h0ZM56.68,234.88c-2.48-61.64-3.33-124.83-2.92-186.52,17.58.13,49.79.44,67.38.65,0,0,1.88.02,1.88.02,4.16,11.88,10.51,30.62,14.68,42.9,0,0-3.22,1.18-3.22,1.18-4.46-13.16-9.6-28.04-14.28-41.12,0,0,.93.65.93.65-20.45-.18-43.7.12-64.15.69,0,0,1.69-1.69,1.69-1.69,1.32,60.32,2.42,124.13-2,183.23h0Z"/>
          <path class="cls-2" d="M96.49,87.24c.21.34,1.31.2,1.75.28,3.03.14-2.81,1.58.13,1.88-.98.13-3.83,1.13-4.7.34-1.78-1.05,1.94-1.58,2.21-2.38,0,0,.61-.13.61-.13ZM96.49,87.24c.76.56,2.49-.11,3.22.61.08,1.76-3.54,1.92-4.7,2.25,1.67-1-.27-.84-1.13-1.05-.84-.21.6-.78,1.06-1.02.23-.12,1.02-.46.94-.67,0,0,.61-.13.61-.13Z"/>
          <path class="cls-2" d="M98,94.41c.04.15.7.12,1.35.09,3.71-.24-2.46,1.24.39,1.32-1.12.12-4.37,1.42-5.13.23.53-.77,2.2-.85,2.78-1.5,0,0,.61-.13.61-.13ZM98,94.41c.81.36,2.34-.26,3.15.21-.2,1.38-3.7,1.58-4.76,1.93,1.71-.84-.3-.58-1.06-.66-.97-.29,2.01-.91,2.06-1.34,0,0,.61-.13.61-.13Z"/>
          <path class="cls-2" d="M97.28,91.07c.08.37,3.39-.2,2.45.45-.67.42-2.59,1.02-.68,1.11-.95.14-3.78,1.07-4.67.51-1.69-.76,2.07-1.34,2.29-1.95,0,0,.61-.13.61-.13ZM97.28,91.07c.8.4,2.37-.23,3.17.3-.14,1.47-3.68,1.63-4.75,1.98,1.71-.87-.3-.63-1.08-.75-1.01-.3,2.04-.97,2.05-1.41l.61-.13Z"/>
          <path class="cls-2" d="M98.67,97.48c.24.21,1.29,0,1.7.03,2.97-.16-2.88,1.26.01,1.21-1.11.13-4.32,1.42-5.11.34.56-.73,2.19-.82,2.79-1.44,0,0,.61-.14.61-.14ZM98.67,97.48c.8.3,2.31-.3,3.13.11-.26,1.3-3.72,1.53-4.77,1.88,1.68-.76-.27-.54-1.05-.58-.97-.22,2.04-.9,2.07-1.28l.61-.14Z"/>
          <path class="cls-2" d="M98.72,99.13c-.11-.73.99-2.85,1.62-1.19.45,1.13-1.48,2.47.45,2.55,0,0-3.34.77-3.34.77-3.32-.74-.66-5.87,1.27-2.13h0ZM98.86,99.74c1.69,4.95,5.27.63,1.93.75,0,0-3.34.77-3.34.77.27-.03.78-.24.73-.22-1.96,2.4,1.24,2.13.68-1.3h0Z"/>
          <path class="cls-2" d="M99.5,101.14c.23.29,1.31.11,1.73.15,3.01-.02-2.82,1.53.13,1.64-1.16.17-4.46,1.58-5.18.12.42-.89,2.2-1.01,2.7-1.76,0,0,.61-.14.61-.14ZM99.5,101.14c.79.46,2.42-.23,3.2.36,0,1.6-3.57,1.86-4.67,2.24,1.66-.98-.3-.72-1.13-.86-1.04-.36,2.01-1.1,1.99-1.59,0,0,.61-.14.61-.14Z"/>
          <path class="cls-2" d="M229.71,109.59c-.05-.17-2.95-1.19-2.07-1.06.66.16,2.53.7.95,0,.99.41,4.16,1.18,4.68,1.95-.81,0-2.22-.63-2.98-.68,0,0-.59-.21-.59-.21h0ZM229.71,109.59c-.59-.41-4.62-1.79-1.53-1.16.05-.05,3.48,1.14,3.66,1.2-1.64-.39.09.3.74.61.78.46-2.17-.55-2.28-.44l-.59-.21h0Z"/>
          <path class="cls-2" d="M230.44,107.37c-.06-.15-2.99-1.07-2.11-.96.66.14,2.54.63.94,0,.19.06,3.65,1.09,3.67,1.16,2.98,1.33-1.25.02-1.91-.01,0,0-.6-.19-.6-.19h0ZM230.44,107.37c-.66-.39-2.13-.74-2.81-1.17.86-.22,3.9.96,4.92,1.21-1.68-.36.15.28.77.55.8.42-2.18-.5-2.28-.4l-.6-.19h0Z"/>
          <path class="cls-2" d="M235.06,120.78s-.55-.02-1.11-.03c-2.68-.05-.48-.05.42-.05.28-.02-.68-.03-.7-.04,1.06.02,4.16.02,5.06.11-1.11.02-2.61.01-3.66.01h0ZM235.06,120.78c-.76-.04-2.22-.04-3.03-.09.87-.08,4.01,0,5.06,0-1.76,0,.52.05.9.06.65.03-2.61.02-2.93.02h0Z"/>
          <path class="cls-2" d="M235.66,101.83c.11-1.05-.89-1.92-1.53-2.72-2.62-3.19,3.42-4.59.75-7.89l3.42.23c1.38,2.32,2.28,5.89-.1,7.88-.77.72-1.83,1.47-1.92,2.53,0,0-.63-.03-.63-.03h0ZM235.66,101.83c.04-1.06-.93-1.92-1.61-2.72-2.12-2.26-.82-5.73.83-7.88,0,0,3.42.23,3.42.23-3.04,2.94,2.8,5.03-.18,7.87-.73.72-1.83,1.47-1.84,2.53,0,0-.63-.03-.63-.03h0Z"/>
          <path class="cls-2" d="M278.84,51.88c-20.63,1.33-42,2.31-62.75,2.53,0,0,2.59-1.81,2.59-1.81-12.85,36.28-29.66,71.05-40.72,107.99,0,0-3.22-1.18-3.22-1.18,12.02-37.12,25.04-74.46,39.36-110.75,20.8.45,41.81,1.13,62.56,2.54.56.04,1.39.1,1.94.14.1.24-.21-.53.24.54h0ZM278.39,51.44c.44,1.07.11.3.21.54-20.72,1.46-41.73,2.17-62.51,2.63,0,0,2.76-1.93,2.76-1.93-12.37,36.25-26.33,72.51-40.89,107.93,0,0-3.22-1.18-3.22-1.18,15.46-35.33,25.11-72.72,38.76-108.71,0,0,.69-1.83.69-1.83,20.95.18,43.23,1.37,64.2,2.56Z"/>
        </g>
      </g>
      <g>
        <path class="cls-3" d="M148.17,84.06h-51.57v153.55h-40.86V84.06H4.42v-34.49h143.75v34.49Z"/>
        <path class="cls-2" d="M148.39,84.28c-15.15.6-36.83,1.35-51.8,1.69,0,0,1.91-1.91,1.91-1.91,1.02,51,1.36,102.5-.13,153.55,0,0-.04,1.82-.04,1.82-13.15-.31-30.63-.67-43.63-.8.58-50.16-1.36-104.38-1.79-154.57,0,0,2.83,2.83,2.83,2.83l-51.32.41s-3.22.03-3.22.03c-.18-11.38-.07-26.25-.13-37.75,0,0,0-3.34,0-3.34,48.93,0,99.61.71,148.57,1.95-.29,10.3-.86,25.68-1.25,36.1h0ZM147.95,83.84c-.37-10.73-.88-23.53-1.21-34.26,0,0,1.43,1.43,1.43,1.43-44.3,1.17-90.48,1.73-134.77,1.93,0,0-8.98,0-8.98,0l3.35-3.35c.14,10.26-.12,24.4-.11,34.49,0,0-3.24-3.24-3.24-3.24l51.32.41,2.86.02c-.4,50.81-2.39,105.57-1.83,156.35,0,0-1.03-1.03-1.03-1.03,11.82-.11,28.87-.47,40.86-.75l-1.78,1.78c-1.51-51.72-1.13-103.83-.09-155.5,15.38.31,37.66,1.2,53.22,1.74Z"/>
      </g>
    </g>
    <g>
      <path class="cls-3" d="M393.07,67.74h-26.13v77.46h-20.7v-77.46h-26v-17.4h72.84v17.4Z"/>
      <path class="cls-3" d="M450.45,117.29h-42.68c.68,9.83,6.67,14.75,17.95,14.75,7.2,0,13.52-1.76,18.98-5.29v15.08c-6.05,3.35-13.91,5.03-23.58,5.03-10.56,0-18.76-3.03-24.6-9.1-5.84-6.06-8.75-14.52-8.75-25.37s3.15-20.15,9.46-26.72c6.3-6.57,14.06-9.86,23.26-9.86s16.92,2.93,22.14,8.8c5.22,5.87,7.83,13.83,7.83,23.88v8.8ZM431.72,104.45c0-9.7-3.79-14.55-11.37-14.55-3.24,0-6.04,1.39-8.4,4.17-2.36,2.78-3.8,6.24-4.31,10.39h24.09Z"/>
      <path class="cls-3" d="M521.24,117.29h-42.68c.68,9.83,6.67,14.75,17.95,14.75,7.2,0,13.52-1.76,18.98-5.29v15.08c-6.05,3.35-13.91,5.03-23.58,5.03-10.56,0-18.76-3.03-24.6-9.1-5.84-6.06-8.75-14.52-8.75-25.37s3.15-20.15,9.46-26.72c6.3-6.57,14.06-9.86,23.26-9.86s16.92,2.93,22.14,8.8c5.22,5.87,7.83,13.83,7.83,23.88v8.8ZM502.52,104.45c0-9.7-3.79-14.55-11.37-14.55-3.24,0-6.04,1.39-8.4,4.17-2.36,2.78-3.8,6.24-4.31,10.39h24.09Z"/>
      <path class="cls-3" d="M596.44,145.2h-20.13v-37.64c0-10.5-3.62-15.74-10.86-15.74-3.49,0-6.37,1.39-8.63,4.17-2.26,2.78-3.39,6.31-3.39,10.58v38.63h-20.19v-67.74h20.19v10.72h.26c4.81-8.25,11.82-12.37,21.02-12.37,14.48,0,21.72,9.31,21.72,27.92v41.48Z"/>
      <path class="cls-3" d="M666.85,145.2h-19.1v-9.72h-.26c-4.39,7.59-10.88,11.38-19.49,11.38-6.35,0-11.34-1.86-14.98-5.59-3.64-3.73-5.46-8.7-5.46-14.92,0-13.14,7.52-20.73,22.55-22.76l17.76-2.45c0-7.41-3.88-11.11-11.63-11.11s-15.21,2.4-22.24,7.21v-15.74c2.81-1.5,6.66-2.82,11.53-3.97,4.88-1.15,9.32-1.72,13.32-1.72,18.66,0,27.99,9.64,27.99,28.91v40.48ZM647.88,117.68v-4.56l-11.88,1.59c-6.56.88-9.84,3.95-9.84,9.19,0,2.38.8,4.33,2.4,5.85,1.6,1.52,3.76,2.28,6.49,2.28,3.79,0,6.88-1.36,9.26-4.07,2.39-2.71,3.58-6.14,3.58-10.29Z"/>
      <g>
        <path class="cls-2" d="M421.95,241.97v-61.2c0-3.13.25-8.18.74-15.15h-.25c-.58,1.85-1.1,3.46-1.58,4.82-.47,1.36-.92,2.47-1.33,3.34l-30.91,68.19h-3.52l-30.97-67.76c-.91-2.06-1.83-4.97-2.78-8.72h-.25c.16,1.9.28,4.06.34,6.49.06,2.43.09,5.13.09,8.1v61.88h-8.04v-88.65h9.71l30.11,66.64c.62,1.4,1.23,2.83,1.82,4.3.6,1.46,1.14,3.02,1.64,4.67h.37c.58-1.65,1.1-3.15,1.58-4.51.47-1.36,1.06-2.82,1.76-4.39l30.35-66.71h9.21v88.65h-8.1Z"/>
        <path class="cls-2" d="M477.65,243.45c-4.7,0-8.91-.78-12.64-2.35-3.73-1.57-6.91-3.78-9.55-6.65-2.64-2.86-4.66-6.3-6.06-10.29-1.4-4-2.1-8.43-2.1-13.29,0-5.27.74-9.99,2.23-14.16,1.48-4.16,3.6-7.7,6.34-10.6,2.74-2.91,6.05-5.12,9.92-6.65,3.87-1.52,8.2-2.29,12.98-2.29s8.7.75,12.36,2.26c3.67,1.5,6.78,3.68,9.33,6.52,2.56,2.84,4.51,6.31,5.87,10.39,1.36,4.08,2.04,8.72,2.04,13.91s-.71,9.45-2.13,13.51c-1.42,4.06-3.45,7.55-6.09,10.48-2.64,2.93-5.85,5.19-9.64,6.8-3.79,1.61-8.08,2.41-12.86,2.41ZM478.27,184.04c-3.46,0-6.59.6-9.4,1.79-2.8,1.2-5.2,2.94-7.2,5.22-2,2.29-3.53,5.09-4.61,8.41-1.07,3.32-1.61,7.08-1.61,11.28,0,3.96.54,7.52,1.61,10.69,1.07,3.17,2.59,5.89,4.54,8.16,1.96,2.27,4.34,4.01,7.14,5.22,2.8,1.22,5.94,1.82,9.4,1.82s6.68-.59,9.4-1.76c2.72-1.17,5.03-2.88,6.92-5.13,1.9-2.25,3.33-5,4.3-8.25.97-3.26,1.45-6.96,1.45-11.13,0-8.53-1.9-15.05-5.69-19.57-3.79-4.51-9.21-6.77-16.26-6.77Z"/>
        <path class="cls-2" d="M567.04,241.97v-36.47c0-14.3-5.19-21.45-15.58-21.45-2.76,0-5.32.55-7.67,1.64-2.35,1.09-4.38,2.61-6.09,4.54-1.71,1.94-3.05,4.23-4.02,6.89-.97,2.66-1.45,5.53-1.45,8.62v36.23h-7.91v-63.31h7.91v11h.25c4.7-8.32,11.77-12.49,21.2-12.49,6.92,0,12.2,2.25,15.83,6.74,3.63,4.49,5.44,10.98,5.44,19.47v38.58h-7.91Z"/>
        <path class="cls-2" d="M630.47,241.97v-11.25h-.25c-2.06,4.04-4.87,7.17-8.44,9.4-3.57,2.23-7.59,3.34-12.09,3.34-3.05,0-5.8-.43-8.25-1.3-2.45-.87-4.53-2.09-6.24-3.68-1.71-1.59-3.03-3.49-3.96-5.72-.93-2.23-1.39-4.68-1.39-7.36,0-5.73,1.77-10.29,5.32-13.69,3.54-3.4,8.9-5.61,16.07-6.65l19.23-2.78c0-12.16-4.72-18.24-14.16-18.24-7.38,0-14.22,2.7-20.52,8.1v-8.65c1.32-.95,2.81-1.8,4.48-2.57,1.67-.76,3.43-1.42,5.29-1.98,1.85-.56,3.76-.99,5.72-1.3,1.96-.31,3.86-.46,5.72-.46,7.05,0,12.37,1.98,15.98,5.93,3.61,3.96,5.41,9.85,5.41,17.68v41.17h-7.91ZM614.15,211.24c-2.84.41-5.28.93-7.29,1.55-2.02.62-3.69,1.45-5.01,2.5-1.32,1.05-2.29,2.35-2.91,3.89-.62,1.55-.93,3.45-.93,5.72,0,1.69.3,3.26.9,4.7.6,1.44,1.46,2.69,2.6,3.74,1.13,1.05,2.51,1.87,4.14,2.44,1.63.58,3.47.87,5.53.87,2.8,0,5.38-.54,7.73-1.61,2.35-1.07,4.38-2.56,6.09-4.45,1.71-1.9,3.05-4.16,4.02-6.8.97-2.64,1.45-5.5,1.45-8.59v-6.24l-16.32,2.29Z"/>
        <path class="cls-2" d="M699.53,239.12c-4.7,2.84-10.39,4.31-17.06,4.39-4.53.04-8.61-.74-12.24-2.35-3.63-1.61-6.72-3.84-9.27-6.71-2.56-2.86-4.51-6.24-5.87-10.14-1.36-3.9-2.04-8.13-2.04-12.7s.72-9.2,2.16-13.38c1.44-4.18,3.54-7.83,6.31-10.94,2.76-3.11,6.14-5.57,10.14-7.39,4-1.81,8.57-2.72,13.72-2.72s10.02,1.01,14.34,3.03v8.41c-4.62-3.05-9.6-4.57-14.96-4.57-3.75,0-7.09.71-10.01,2.13-2.93,1.42-5.39,3.36-7.39,5.81-2,2.45-3.52,5.32-4.58,8.59-1.05,3.28-1.58,6.75-1.58,10.42,0,3.38.44,6.62,1.33,9.71.89,3.09,2.25,5.82,4.08,8.19,1.83,2.37,4.15,4.26,6.96,5.66,2.8,1.4,6.1,2.1,9.89,2.1,5.93,0,11.29-1.77,16.07-5.32v7.79Z"/>
        <path class="cls-2" d="M740.64,243.45c-4.7,0-8.91-.78-12.64-2.35-3.73-1.57-6.91-3.78-9.55-6.65-2.64-2.86-4.66-6.3-6.06-10.29-1.4-4-2.1-8.43-2.1-13.29,0-5.27.74-9.99,2.23-14.16,1.48-4.16,3.6-7.7,6.34-10.6,2.74-2.91,6.05-5.12,9.92-6.65,3.87-1.52,8.2-2.29,12.98-2.29s8.7.75,12.36,2.26c3.67,1.5,6.78,3.68,9.33,6.52,2.56,2.84,4.51,6.31,5.87,10.39,1.36,4.08,2.04,8.72,2.04,13.91s-.71,9.45-2.13,13.51c-1.42,4.06-3.45,7.55-6.09,10.48-2.64,2.93-5.85,5.19-9.64,6.8-3.79,1.61-8.08,2.41-12.86,2.41ZM741.26,184.04c-3.46,0-6.59.6-9.4,1.79-2.8,1.2-5.2,2.94-7.2,5.22-2,2.29-3.53,5.09-4.61,8.41-1.07,3.32-1.61,7.08-1.61,11.28,0,3.96.54,7.52,1.61,10.69,1.07,3.17,2.59,5.89,4.54,8.16,1.96,2.27,4.34,4.01,7.14,5.22,2.8,1.22,5.94,1.82,9.4,1.82s6.68-.59,9.4-1.76c2.72-1.17,5.03-2.88,6.92-5.13,1.9-2.25,3.33-5,4.3-8.25.97-3.26,1.45-6.96,1.45-11.13,0-8.53-1.9-15.05-5.69-19.57-3.79-4.51-9.21-6.77-16.26-6.77Z"/>
      </g>
    </g>
  </g>
</svg>