<?xml version="1.0" encoding="UTF-8"?>
<svg id="Layer_2" xmlns="http://www.w3.org/2000/svg" viewBox="0 0 464 456.24">
  <defs>
    <style>
      .cls-1 {
        fill: #fff;
      }

      .cls-2 {
        fill: #82897c;
      }

      .cls-3 {
        fill: #b6b7b6;
      }

      .cls-4 {
        fill: #9da398;
      }
    </style>
  </defs>
  <g id="Layer_3">
    <g>
      <path class="cls-1" d="M463.98,228.7c-5.12,300.02-451.4,299.98-456.48,0,5.12-300.01,451.4-299.97,456.48,0Z"/>
      <path class="cls-2" d="M463.98,228.7c-1.46,302.7-462.39,304.07-463.98-.01,5.19-305.21,458.76-304.61,463.98.01h0ZM463.98,228.7C467.2-13.61,119.66-80.84,31.53,144.13c-117.81,334.54,416.08,438.42,432.44,84.57h0Z"/>
    </g>
    <g>
      <path class="cls-4" d="M444.75,79.13h-102.05c-8.48,24.86-69.3,184.19-73.85,206.48-3.07-20.93-65.49-182.98-73.23-206.48h-107.88v295.81s0,3.32,0,3.32h69.47c-.35-39.17,1.01-175.1-1.21-212.53,1.56,6.44,2.83,10.94,3.85,13.6,1.07,2.85,73.8,196.16,74.84,198.93h61.61c.91-2.49,72.61-198.5,73.54-201.02,1.09-2.98,2.24-6.69,3.44-11.1-1.61,24.37-.53,184.63-.82,212.12h75.54V82.45s0-3.32,0-3.32h-3.23ZM279.61,260.83c-.44,1.3-.88,2.62-1.32,3.96.44-1.34.88-2.66,1.32-3.96ZM90.98,374.94V82.46h102.41l23.87,65.24-23.87-65.24h-102.41v292.48h0ZM153.53,139.35c.27,1.34.54,2.64.81,3.91-.27-1.27-.54-2.57-.81-3.91ZM155.94,150.81c.2.93.4,1.83.59,2.72-.19-.88-.39-1.79-.59-2.72ZM154.8,145.47c.21,1.01.42,2,.63,2.97-.21-.97-.42-1.96-.63-2.97ZM157.01,155.71c.19.84.37,1.67.55,2.47-.18-.8-.37-1.62-.55-2.47ZM157.69,158.73c.18.79.35,1.55.53,2.3-.17-.75-.35-1.51-.53-2.3ZM158.34,161.56c.28,1.18.54,2.31.8,3.39-.26-1.07-.53-2.2-.8-3.39ZM367.15,175.1c.11-.32.23-.65.34-.98-.11.34-.23.66-.34.98ZM368.33,171.55c.09-.29.18-.58.27-.88-.09.3-.18.59-.27.88ZM375.72,192.8c0-.06,0-.11,0-.17,0,.06,0,.11,0,.17ZM376.68,162.57c.27-5.46.6-11.05.99-16.77-.39,5.72-.72,11.31-.99,16.77ZM444.75,82.46h-99.81l-63.44,172.96,63.44-172.96h99.81Z"/>
      <g>
        <path class="cls-2" d="M444.75,79.63c-25.49.06-76.58.13-102.05.36,0,0,.81-.56.81-.56-23.89,71.15-56.15,148.77-74.81,221.29-18.24-73.17-53.39-148.26-77.2-220.08,0,0,4.12,2.88,4.12,2.88-26.83-.04-81.04-.53-107.88-.76,0,0,3.63-3.63,3.63-3.63-.57,86.52-2.58,213.77-2.1,299.13,0,0-1.52-1.52-1.52-1.52,17.38-.08,52.11-.05,69.47-.16,0,0-1.68,1.68-1.68,1.68-.77-67.57.33-145.23-2.85-212.38,0,0,6.54-.93,6.54-.93,3.62,15.34,13.7,37.65,19.17,52.84,12.97,33.55,47.46,124.05,60.71,158.82,0,0-4.42-3.06-4.42-3.06l61.61-.24s-4.65,3.25-4.65,3.25c27.4-80.19,68.48-176.99,89.32-258.34-5.35,84.59-2.75,175.46-4.17,260.04,0,0-4.35-4.35-4.35-4.35,18.77.1,56.76.67,75.54.91,0,0-3.44,3.44-3.44,3.44.84-88.24,3.3-212.16,2.93-299.13,0,0,.51.51.51.51,0,0-3.23,0-3.23,0h0ZM444.75,78.63c.33,0,3.51,0,3.74,0,.16,88.14,1.58,213.69,2.98,303.03-20.55.31-58.46.78-79.02.96,0,0-4.3.04-4.3.04-.22-69.95-1.98-146.72-.23-216.76,0,0,10.51,1.65,10.51,1.65-20.23,60.2-55.34,151.15-77.48,212.42,0,0-1.21,3.27-1.21,3.27-3.02-.01-65.25-.25-68.35-.26-18.57-50.59-51.86-139.22-69.9-189.09-3.01-7.99-7.14-19.13-8.72-27.37,0,0,6.54-.93,6.54-.93,1.91,67.51-.69,144.98-.42,212.69,0,0,0,1.69,0,1.69-18.8-.14-53.82-.1-72.67-.17-.03-87.14-1.01-216.02-2.14-304.25,28.74-.27,82.81-.69,111.55-.79,0,0,3.05-.02,3.05-.02,23.6,68,54.93,140.92,73.63,210.12,0,0-6.88-.15-6.88-.15,14.34-48.54,39.79-106.68,57.07-154.58.3-.79,19.32-51.11,19.61-51.86,25.66.25,76.96.32,102.64.36Z"/>
        <path class="cls-2" d="M280.08,260.99c-.26.8,4.75,2.76,2.83,3.13-1.43.09-4.36-.22-2.01,1.51-1.47-.61-6.23-1.45-6.77-3.31-1.6-2.99,3.95-.74,5-1.66,0,0,.95.32.95.32ZM280.08,260.99c.57,1.41,3.52,1.9,3.94,3.5-1.29,2.56-6.43-.08-8.33-.55,2.91-.02.41-1.5-.7-2.45-1.06-1.55,3.67.01,4.14-.83,0,0,.95.32.95.32Z"/>
        <path class="cls-2" d="M90.48,374.94c-4.2-97.06-5.28-195.4-2.2-292.48,0,0,.07-2.76.07-2.76,24.78.69,54.75,1.25,79.43,1.26,0,0,25.6-.08,25.6-.08,0,0,1.1,0,1.1,0,5.81,15.55,12.98,34.24,19.01,49.72,0,0,6.33,16.18,6.33,16.18,0,0-5.14,1.88-5.14,1.88-7.32-18.28-18.2-46.59-25.25-64.73,0,0,3.95,2.76,3.95,2.76-25.53.34-76.89.79-102.41,1,0,0,5.21-5.21,5.21-5.21-.46,95.89,1.05,198.6-5.71,292.48h0ZM90.48,374.94c-3.95-98.39-5.32-199.27-4.65-297.73,28.06.21,79.48.7,107.56,1.04,0,0,3.01.03,3.01.03,6.65,18.97,16.78,48.88,23.44,68.47,0,0-5.14,1.88-5.14,1.88-7.13-21.01-15.32-44.77-22.79-65.63,0,0,1.49,1.04,1.49,1.04-32.64-.28-69.76.19-102.41,1.11,0,0,2.7-2.7,2.7-2.7,2.11,96.29,3.87,198.15-3.2,292.48h0Z"/>
        <path class="cls-2" d="M154.02,139.25c.33.54,2.1.32,2.79.44,4.83.22-4.49,2.52.21,3.01-1.57.2-6.11,1.8-7.51.54-2.84-1.68,3.1-2.52,3.53-3.79,0,0,.98-.2.98-.2ZM154.02,139.25c1.22.89,3.97-.17,5.15.97.12,2.8-5.65,3.06-7.51,3.6,2.66-1.6-.44-1.34-1.81-1.67-1.34-.34.96-1.24,1.69-1.63.37-.19,1.63-.73,1.5-1.07,0,0,.98-.2.98-.2Z"/>
        <path class="cls-2" d="M156.43,150.7c.06.24,1.12.19,2.16.14,5.92-.39-3.92,1.99.62,2.1-1.79.2-6.97,2.26-8.19.36.85-1.22,3.51-1.35,4.44-2.39,0,0,.98-.21.98-.21ZM156.43,150.7c1.29.57,3.74-.42,5.03.33-.32,2.21-5.91,2.52-7.6,3.08,2.74-1.34-.48-.92-1.7-1.06-1.54-.46,3.21-1.46,3.29-2.14,0,0,.98-.21.98-.21Z"/>
        <path class="cls-2" d="M155.29,145.37c.14.6,5.41-.32,3.91.72-1.07.67-4.14,1.63-1.09,1.78-1.51.22-6.04,1.71-7.46.81-2.69-1.21,3.3-2.14,3.66-3.11,0,0,.98-.21.98-.21ZM155.29,145.37c1.27.64,3.79-.36,5.05.48-.23,2.34-5.87,2.61-7.59,3.16,2.73-1.39-.47-1.01-1.72-1.19-1.61-.49,3.26-1.55,3.28-2.25l.98-.21Z"/>
        <path class="cls-2" d="M157.5,155.6c.39.34,2.06.01,2.71.04,4.74-.25-4.6,2.01.02,1.93-1.77.2-6.89,2.26-8.16.54.9-1.16,3.5-1.31,4.45-2.29,0,0,.98-.22.98-.22ZM157.5,155.6c1.28.49,3.69-.48,5,.17-.41,2.07-5.94,2.44-7.61,3.01,2.68-1.21-.44-.86-1.68-.92-1.55-.35,3.25-1.44,3.3-2.04l.98-.22Z"/>
        <path class="cls-2" d="M157.58,158.24c-.17-1.17,1.58-4.55,2.59-1.9.71,1.8-2.36,3.95.72,4.06,0,0-5.33,1.24-5.33,1.24-5.3-1.18-1.05-9.37,2.03-3.4h0ZM157.8,159.22c2.7,7.9,8.42,1.01,3.08,1.19,0,0-5.33,1.24-5.33,1.24.43-.05,1.25-.39,1.16-.35-3.13,3.83,1.98,3.4,1.09-2.08h0Z"/>
        <path class="cls-2" d="M158.83,161.44c.36.47,2.09.17,2.77.24,4.81-.03-4.5,2.44.21,2.62-1.86.27-7.11,2.52-8.26.18.68-1.43,3.51-1.6,4.31-2.81,0,0,.97-.23.97-.23ZM158.83,161.44c1.26.73,3.86-.37,5.11.57,0,2.55-5.7,2.97-7.46,3.57,2.65-1.57-.48-1.15-1.8-1.37-1.66-.57,3.21-1.76,3.17-2.54,0,0,.97-.23.97-.23Z"/>
        <path class="cls-2" d="M366.68,174.93c-.08-.27-4.71-1.9-3.3-1.69,1.06.25,4.03,1.11,1.52,0,1.58.66,6.64,1.88,7.47,3.12-1.3,0-3.54-1-4.75-1.09,0,0-.94-.33-.94-.33h0ZM366.68,174.93c-.94-.65-7.37-2.85-2.44-1.86.08-.08,5.55,1.82,5.84,1.92-2.63-.62.14.48,1.18.97,1.24.74-3.46-.88-3.64-.7l-.94-.33h0Z"/>
        <path class="cls-2" d="M367.85,171.4c-.1-.24-4.78-1.71-3.37-1.53,1.06.22,4.06,1.01,1.5,0,.31.1,5.82,1.74,5.86,1.85,4.76,2.13-2,.03-3.04-.02,0,0-.95-.3-.95-.3h0ZM367.85,171.4c-1.05-.62-3.4-1.18-4.49-1.87,1.37-.34,6.23,1.54,7.86,1.94-2.69-.58.23.45,1.23.87,1.27.66-3.48-.8-3.64-.64l-.95-.3h0Z"/>
        <path class="cls-2" d="M375.22,192.8s-.88-.03-1.77-.05c-4.27-.08-.76-.08.66-.09.44-.02-1.09-.05-1.12-.06,1.7.04,6.63.03,8.07.18-1.77.03-4.16.02-5.84.02h0ZM375.22,192.8c-1.22-.06-3.54-.06-4.84-.14,1.38-.13,6.4.01,8.07.01-2.82,0,.84.08,1.44.1,1.04.05-4.17.03-4.67.03h0Z"/>
        <path class="cls-2" d="M376.18,162.54c.18-1.68-1.42-3.06-2.44-4.34-4.18-5.1,5.45-7.33,1.2-12.59l5.46.37c2.2,3.71,3.63,9.4-.16,12.57-1.23,1.15-2.92,2.35-3.07,4.04,0,0-1-.05-1-.05h0ZM376.18,162.54c.06-1.7-1.48-3.07-2.57-4.35-3.39-3.61-1.31-9.14,1.33-12.58,0,0,5.46.37,5.46.37-4.85,4.69,4.46,8.02-.29,12.57-1.16,1.15-2.92,2.35-2.93,4.04,0,0-1-.05-1-.05h0Z"/>
        <path class="cls-2" d="M445.1,82.81c-32.94,2.12-67.04,3.69-100.16,4.04,0,0,4.13-2.88,4.13-2.88-20.52,57.91-47.35,113.41-64.99,172.39,0,0-5.14-1.89-5.14-1.89,19.18-59.25,39.98-118.86,62.84-176.79,33.2.71,66.75,1.8,99.86,4.05.89.06,2.22.16,3.09.22.17.38-.34-.85.38.86h0ZM444.39,82.11c.7,1.71.18.47.33.85-33.08,2.33-66.61,3.46-99.79,4.2,0,0,4.41-3.08,4.41-3.08-19.74,57.87-42.04,115.74-65.28,172.28,0,0-5.14-1.89-5.14-1.89,24.67-56.4,40.08-116.08,61.88-173.53,0,0,1.1-2.93,1.1-2.93,33.45.29,69,2.18,102.48,4.09Z"/>
      </g>
    </g>
    <g>
      <path class="cls-3" d="M236.52,134.18h-82.33v245.1h-65.22v-245.1H7.05v-55.05h229.47v55.05Z"/>
      <path class="cls-2" d="M236.87,134.53c-24.18.96-58.78,2.15-82.68,2.69,0,0,3.04-3.04,3.04-3.04,1.63,81.41,2.18,163.62-.2,245.1,0,0-.07,2.91-.07,2.91-20.99-.49-48.89-1.07-69.65-1.28.93-80.07-2.17-166.62-2.86-246.73,0,0,4.52,4.52,4.52,4.52l-81.92.65s-5.14.04-5.14.04c-.29-18.16-.11-41.9-.2-60.26,0,0,0-5.34,0-5.34,78.11-.02,159.01,1.13,237.16,3.12-.46,16.44-1.37,41-2,57.63h0ZM236.17,133.83c-.6-17.13-1.41-37.56-1.93-54.7,0,0,2.28,2.28,2.28,2.28-70.71,1.86-144.44,2.77-215.13,3.08,0,0-14.34-.01-14.34-.01l5.34-5.34c.22,16.38-.19,38.94-.18,55.05,0,0-5.17-5.17-5.17-5.17l81.92.65,4.57.04c-.64,81.1-3.82,168.51-2.92,249.58,0,0-1.65-1.65-1.65-1.65,18.86-.18,46.08-.74,65.22-1.19,0,0-2.84,2.84-2.84,2.84-2.42-82.56-1.8-165.74-.14-248.23,24.56.49,60.12,1.92,84.96,2.77Z"/>
    </g>
  </g>
</svg>